<svg width="136" height="28" viewBox="0 0 136 28" fill="none" xmlns="http://www.w3.org/2000/svg">
<path fill-rule="evenodd" clip-rule="evenodd" d="M18.6648 18.7775C24.752 18.7775 28.9565 14.6708 28.9565 9.3625C28.9565 4.05417 24.752 0 18.6648 0H11.4467V3.20833C11.952 3.43 12.4392 3.6925 12.8964 3.99583C13.6302 4.49167 14.2858 5.0925 14.8452 5.76917V3.00417H18.6648C22.7309 3.00417 25.3896 5.71083 25.3896 9.415C25.3896 13.1192 22.7309 15.7733 18.6648 15.7733H15.6693C14.9595 16.9808 13.967 18.0075 12.7761 18.7775H18.6648ZM34.2437 18.8883H30.8934V4.71917H34.2437V18.8883ZM45.2152 11.0775C45.7445 11.2933 46.2317 11.5558 46.6648 11.8708V11.8592C47.0979 12.1742 47.4528 12.5533 47.7294 13.0025C48.0061 13.4517 48.1445 13.9942 48.1445 14.6417V14.6942C48.1445 15.4467 48.0061 16.1 47.7294 16.6542C47.4528 17.2083 47.0678 17.6692 46.5806 18.0367C46.0934 18.4042 45.5159 18.6783 44.8543 18.8708C44.1926 19.0575 43.4828 19.1508 42.7249 19.1508C41.6723 19.1508 40.6076 18.97 39.5309 18.6142C38.4482 18.2583 37.4437 17.7275 36.5234 17.0333L38.0212 14.8342C38.8152 15.4058 39.6272 15.8433 40.4452 16.135C41.2633 16.4325 42.0513 16.5783 42.8091 16.5783C43.5249 16.5783 44.0843 16.4383 44.4813 16.1583C44.8783 15.8842 45.0768 15.5108 45.0768 15.0442V14.9917C45.0768 14.7233 44.9866 14.49 44.8122 14.2917C44.6377 14.0933 44.3971 13.9183 44.0904 13.7667C43.7836 13.615 43.4347 13.4808 43.0377 13.3642C42.8759 13.3159 42.71 13.2676 42.5412 13.2185C42.3022 13.1489 42.0575 13.0777 41.8106 13.0025C41.2753 12.8625 40.734 12.6933 40.1926 12.495C39.6512 12.3025 39.158 12.0458 38.7249 11.7308C38.2919 11.4217 37.937 11.0308 37.6603 10.5642C37.3836 10.0975 37.2452 9.52583 37.2452 8.84333V8.79083C37.2452 8.11417 37.3836 7.51333 37.6482 6.9825C37.9129 6.4575 38.2858 6.0025 38.755 5.62917C39.2242 5.25583 39.7776 4.97 40.4152 4.77167C41.0528 4.57333 41.7264 4.47417 42.4482 4.47417C43.3746 4.47417 44.3069 4.62 45.2452 4.90583C46.1896 5.19167 47.0437 5.5825 47.8197 6.08417L46.4903 8.39417C45.7926 7.98 45.0828 7.65333 44.361 7.41417C43.6452 7.175 42.9776 7.0525 42.37 7.0525C41.7204 7.0525 41.2212 7.18667 40.8603 7.455C40.4994 7.72333 40.3189 8.06167 40.3189 8.47583V8.52833C40.3189 8.77917 40.4091 9.00083 40.5956 9.1875C40.7821 9.37417 41.0227 9.54333 41.3294 9.695C41.6302 9.84667 41.9851 9.98667 42.3821 10.1092C42.7731 10.2317 43.1881 10.3658 43.6091 10.5117C44.1445 10.675 44.6798 10.8617 45.2152 11.0775ZM79.567 11.7658C79.567 10.745 79.3746 9.79417 78.9836 8.9075L78.9896 8.90167C78.6046 8.015 78.0633 7.23917 77.3716 6.56833C76.6798 5.8975 75.8558 5.3725 74.9054 4.9875C73.955 4.6025 72.9144 4.41 71.7896 4.41C70.6648 4.41 69.6242 4.6025 68.6738 4.99917C67.7234 5.39 66.8994 5.92667 66.2076 6.5975C65.5159 7.26833 64.9685 8.05583 64.5715 8.94833C64.1746 9.84083 63.9761 10.7975 63.9761 11.8183V11.8708C63.9761 12.8742 64.1746 13.825 64.5595 14.7175C64.9445 15.6158 65.4858 16.3917 66.1776 17.0567C66.8693 17.7158 67.6934 18.2408 68.6437 18.6258C69.5941 19.0108 70.6046 19.2033 71.7294 19.2033C72.8543 19.2033 73.8949 19.005 74.8573 18.6142C75.8137 18.2175 76.6437 17.6867 77.3355 17.0158C78.0272 16.345 78.5746 15.5633 78.9715 14.665C79.3685 13.7667 79.567 12.8217 79.567 11.8183V11.7658ZM75.8919 10.0392C76.1144 10.5933 76.2227 11.1883 76.2227 11.8125H76.2287V11.865C76.2287 12.4775 76.1264 13.055 75.9219 13.5975C75.7174 14.1458 75.4227 14.6183 75.0377 15.0325C74.6467 15.4467 74.1836 15.7733 73.6362 16.0125C73.0949 16.2575 72.4753 16.38 71.7956 16.38C71.146 16.38 70.5505 16.2575 70.0091 16.0125C69.4618 15.7733 68.9926 15.4408 68.5956 15.0208C68.1986 14.595 67.8919 14.1108 67.6693 13.5567C67.4528 13.0025 67.3385 12.425 67.3385 11.8125V11.76C67.3385 11.13 67.4407 10.5467 67.6452 9.99833C67.8497 9.45 68.1445 8.9775 68.5294 8.575C68.9204 8.1725 69.3836 7.84583 69.931 7.60667C70.4723 7.3675 71.0798 7.245 71.7415 7.245C72.4031 7.245 73.0046 7.3675 73.552 7.60667C74.0994 7.85167 74.5685 8.17833 74.9655 8.58667C75.3625 9.00083 75.6693 9.485 75.8919 10.0392ZM83.3084 4.69583L87.2362 15.1142H87.2482L91.2061 4.69583H94.7189L88.74 18.9758H85.7204L79.7114 4.69583H83.3084ZM109.173 12.0225C109.173 11.0075 109.023 10.0333 108.728 9.11167V9.10583C108.433 8.19 108 7.37917 107.417 6.67917C106.833 5.985 106.105 5.43083 105.227 5.01667C104.355 4.60833 103.332 4.39833 102.172 4.39833C101.119 4.39833 100.157 4.59083 99.2904 4.97583C98.4242 5.355 97.6723 5.88583 97.0347 6.55667C96.3971 7.2275 95.9039 8.015 95.555 8.9075C95.2001 9.8 95.0257 10.7567 95.0257 11.7775V11.83C95.0257 12.9208 95.2242 13.9183 95.6091 14.8225C96.0001 15.7267 96.5294 16.5025 97.2031 17.1442C97.8768 17.7917 98.6708 18.2933 99.5851 18.6492C100.499 19.005 101.48 19.1858 102.532 19.1858C103.88 19.1858 105.035 18.9467 106.003 18.4625C106.972 17.9842 107.808 17.3367 108.511 16.5317L106.544 14.84C105.955 15.3942 105.36 15.8142 104.746 16.1C104.138 16.3858 103.417 16.5317 102.587 16.5317C101.498 16.5317 100.572 16.2225 99.8076 15.6042C99.0437 14.9858 98.5625 14.0933 98.3821 12.9325H109.119C109.136 12.7864 109.147 12.6403 109.158 12.4988L109.161 12.4658C109.173 12.3142 109.173 12.1683 109.173 12.0225ZM105.613 9.60136C105.731 9.8664 105.811 10.0451 105.853 10.4417H98.358C98.5084 9.33333 98.9174 8.77333 99.5911 8.085C100.265 7.39667 101.113 7.0525 102.147 7.0525C102.701 7.0525 103.194 7.14583 103.627 7.3325C104.06 7.51917 104.433 7.7875 104.746 8.12583C105.059 8.46417 105.305 8.86667 105.492 9.32167C105.536 9.42915 105.576 9.51939 105.613 9.60136ZM52.9986 11.7717C52.9986 14.3208 54.7971 16.3567 57.3716 16.3567C58.9475 16.3567 60.1084 15.6333 61.161 14.5892L63.1821 16.52C61.7445 18.0717 60.0603 19.1742 57.2091 19.1742C52.8663 19.1742 49.6543 15.8725 49.6543 11.8242C49.6543 7.77583 52.8603 4.3925 57.2332 4.3925C60.0001 4.3925 61.7084 5.38417 63.0678 6.83083L60.9926 9.00667C59.97 7.95667 58.8934 7.23333 57.2031 7.23333C54.767 7.23333 52.9986 9.2225 52.9986 11.7717ZM115.02 4.69V7.02917C116.283 5.50667 118.34 4.96417 119.507 4.76583L120.656 7.4725C119.2 7.6825 116.385 8.4175 115.381 10.9958C115.11 11.6842 115.02 12.5183 115.02 13.4633V18.8592H111.675V4.69H115.02ZM128.77 15.0733L132.511 4.68417H132.517H136.006C136.006 4.68417 129.6 20.7725 128.77 22.4117C128 23.9167 127.747 24.2142 126.629 24.9025C125.822 25.3943 123.467 25.3827 122.156 25.3763C122.021 25.3756 121.897 25.375 121.787 25.375V22.7267C122.46 22.7675 124.241 22.7967 125.005 22.4175C125.997 21.7233 127.092 18.8533 127.092 18.8533L127.134 18.7542L121.702 4.68417H125.275L128.77 15.0733ZM10.6548 15.6315C10.5076 15.9513 10.3573 16.2775 10.3279 16.6483H10.3339C10.2858 17.2141 10.755 17.7041 11.14 18.0074C9.61816 18.7599 7.83771 19.0224 6.03921 18.6433C4.99861 18.4274 4.05425 18.0133 3.24222 17.4533C3.61515 15.9833 4.45124 14.8574 5.50387 14.4316C5.72643 14.3441 5.94898 14.2566 6.1956 14.1691L6.21929 14.1604C7.32618 13.7543 8.57013 13.2979 9.21515 12.1916C9.29463 12.0631 9.35544 11.9392 9.41402 11.8198L9.41403 11.8198L9.41403 11.8198L9.41404 11.8198L9.41404 11.8198L9.41405 11.8197L9.41405 11.8197L9.43771 11.7716L9.45109 11.7444C9.57711 11.4886 9.67945 11.2809 9.88282 11.0949C10.1776 10.8266 10.5324 10.6224 10.9114 10.4066C11.1219 10.2899 11.3385 10.1616 11.543 10.0274L11.6272 9.96911L11.6414 9.95974C12.0383 9.69734 12.6261 9.30881 12.6618 8.72661C12.6798 8.46411 12.5415 8.24828 12.4272 8.08495C12.1685 7.74078 11.8618 7.44911 11.561 7.16328C11.3625 6.97078 11.17 6.78411 10.9896 6.58578C10.3941 5.91495 9.45575 5.06328 8.355 4.80661C7.83771 4.68995 7.12192 4.78328 6.4362 4.87661C6.36916 4.885 6.30289 4.89358 6.23778 4.90201L6.23777 4.90201C5.94074 4.94046 5.66789 4.97578 5.45575 4.97578C5.23319 4.98161 4.90838 4.99911 4.54147 5.02245C4.46692 5.02697 4.38996 5.03187 4.31164 5.03687L4.31138 5.03688C4.08643 5.05123 3.85019 5.0663 3.62718 5.07495C5.25725 4.09495 7.27229 3.70411 9.29334 4.12995C12.6136 4.82995 14.9595 7.51911 15.2843 10.6341L15.2838 10.6344C15.1999 10.6809 15.158 10.7041 15.146 10.7099C14.346 11.0541 13.5881 11.4974 12.9565 11.9933C12.8542 12.0749 12.746 12.1566 12.6317 12.2383L12.6276 12.2414C12.1113 12.6256 11.5242 13.0625 11.2663 13.7083C11.158 13.9766 11.0918 14.2508 11.0317 14.5191C11.0188 14.5692 11.0064 14.6188 10.9942 14.6678L10.9939 14.669L10.9939 14.6691C10.9493 14.8479 10.9065 15.0196 10.8452 15.1841C10.8033 15.3061 10.7476 15.4281 10.6902 15.554L10.6648 15.6099L10.6548 15.6315ZM7.56703 17.0566H8.36703L9.43169 15.8374L8.43921 14.6941H7.61515L8.68583 15.8549L7.56703 17.0566ZM102.629 25.3458V25.3574C102.629 26.8041 103.766 27.9999 105.39 27.9999C107.014 27.9999 108.163 26.7924 108.163 25.3458V25.3283C108.163 23.8874 107.026 22.6916 105.402 22.6916C103.778 22.6916 102.629 23.8991 102.629 25.3458ZM107.188 25.3458V25.3574L107.194 25.3691C107.194 26.3666 106.454 27.1774 105.408 27.1774C104.361 27.1774 103.609 26.3491 103.609 25.3516V25.3341C103.609 24.3366 104.337 23.5199 105.39 23.5199C106.442 23.5199 107.188 24.3483 107.188 25.3458ZM36.343 22.7791H40.2648V23.5899H37.2693V24.9199H39.9219V25.7249H37.2693V27.1074H40.3008V27.9124H36.343V22.7791ZM46.7129 25.3049L44.8603 22.7791H45.955L47.2723 24.6224L48.5956 22.7791H49.6603L47.8136 25.2874L49.7385 27.9124H48.6377L47.2482 25.9699L45.8467 27.9124H44.7821L46.7129 25.3049ZM56.5595 22.7791H54.4723H54.4663V27.9124H55.3986V26.2616H56.4512C57.6181 26.2616 58.5685 25.6607 58.5685 24.5116V24.4941C58.5685 23.4616 57.7926 22.7791 56.5595 22.7791ZM57.6242 24.5291C57.6242 25.0657 57.1851 25.4449 56.4813 25.4449V25.4507H55.3986V23.6016H56.4813C57.179 23.6016 57.6242 23.9166 57.6242 24.5174V24.5291ZM63.3023 22.7791H67.2242V23.5899H64.2287V24.9199H66.8813V25.7249H64.2287V27.1074H67.2602V27.9124H63.3023V22.7791ZM74.1174 22.7791H72.1445V27.9124H74.1174C75.7775 27.9124 76.9264 26.7924 76.9264 25.3457V25.3282C76.9264 23.8874 75.7775 22.7791 74.1174 22.7791ZM75.952 25.3574C75.952 26.3666 75.2242 27.0899 74.1174 27.0899V27.0841H73.0768V23.5957H74.1174C75.2242 23.5957 75.952 24.3366 75.952 25.3399V25.3574ZM82.8212 22.7791H81.8888V27.9124H82.8212V22.7791ZM87.6332 23.6132H89.3114V27.9124H90.2437V23.6132H91.9219V22.7791H87.6332V23.6132ZM97.6723 22.7791H96.74V27.9124H97.6723V22.7791ZM113.065 22.7791H113.925L116.758 26.3257V22.7791H117.672V27.9124H116.896L113.979 24.2607V27.9124H113.065V22.7791ZM4.30686 9.29253C4.18055 8.5342 3.89784 8.5167 3.20611 8.47587L3.0016 8.4642C2.39563 8.41811 1.63123 8.16147 1.00976 7.95282L0.986562 7.94503L0.890321 7.91003C0.571525 8.49337 0.330923 9.12337 0.180547 9.80003C-0.18637 11.4275 0.030171 13.0434 0.691825 14.455C1.30536 12.9384 2.29784 11.9817 3.10987 11.2C3.86777 10.4709 4.41513 9.94003 4.30686 9.29253ZM12.9858 12.6924L12.9926 12.6874C13.1069 12.6057 13.2211 12.5182 13.3294 12.4307C13.9008 11.9816 14.5926 11.5791 15.3204 11.2582C15.3264 11.8241 15.2723 12.3957 15.146 12.9674C14.6828 15.0149 13.3896 16.6832 11.6873 17.7041C11.2542 17.4124 10.8813 17.0041 10.9114 16.6949C10.9343 16.4221 11.0559 16.1546 11.182 15.8772L11.2001 15.8374C11.2723 15.6857 11.3444 15.5282 11.3986 15.3707C11.4888 15.1257 11.549 14.8807 11.6031 14.6416C11.6632 14.3849 11.7234 14.1457 11.8136 13.9124C12.0112 13.4131 12.5067 13.0467 12.9858 12.6924ZM4.01815 12.1684C4.38507 11.8942 4.8362 11.585 5.40763 11.3342C5.5522 11.2682 5.69376 11.1964 5.8387 11.1229C5.89879 11.0924 5.95946 11.0616 6.02116 11.0308L6.10536 10.9872L6.10539 10.9872L6.10545 10.9871C6.25952 10.9071 6.41789 10.8248 6.58056 10.7508C7.1159 10.5 7.57304 10.255 7.72943 9.76502L7.77755 9.61918C7.92191 9.15835 8.06026 8.72668 8.355 8.28918C8.64973 7.85168 8.63169 7.72335 8.22868 7.36752C7.86778 7.05252 7.65725 6.94168 7.24823 6.86585C6.73094 6.76668 6.10537 6.88335 5.54597 6.98835H5.5159C4.28883 7.22168 2.73094 7.06418 1.57605 6.87168C1.4377 7.04668 1.31139 7.22168 1.18507 7.40835L1.20593 7.41531C1.76334 7.60134 2.515 7.85219 3.04372 7.89252L3.24221 7.90418C3.958 7.94502 4.69184 7.99168 4.89033 9.19918C5.04672 10.1325 4.34297 10.815 3.52492 11.5967C2.66477 12.425 1.60612 13.4458 1.05876 15.1492C1.23921 15.4467 1.44372 15.7383 1.66627 16.0067C1.99109 14.8575 2.67079 13.1483 4.01214 12.1625L4.01815 12.1684ZM5.79276 13.7014C5.6165 13.7663 5.43797 13.832 5.26927 13.9009L5.27528 13.8892C4.11438 14.3617 3.18205 15.5284 2.73694 17.0567C2.53243 16.8934 2.33393 16.7184 2.15348 16.5317C2.35197 15.6975 2.97754 13.65 4.38506 12.6117C4.87829 12.25 5.24521 12.0225 5.66024 11.8417C5.8828 11.7425 6.09934 11.6317 6.30987 11.5209C6.36704 11.4922 6.42486 11.4622 6.48312 11.4321L6.48328 11.432L6.48338 11.432L6.4834 11.4319L6.48342 11.4319C6.6028 11.3701 6.724 11.3074 6.84521 11.2525C7.32641 11.0309 8.06025 10.6867 8.30085 9.92253L8.34897 9.77669C8.4813 9.33919 8.6016 8.96003 8.85423 8.59253C9.31137 7.91586 9.25724 7.48419 8.63167 6.93586C8.24671 6.59753 7.94596 6.40503 7.36852 6.29419C6.73694 6.17753 6.04521 6.30586 5.43769 6.42253H5.40761C4.34897 6.61503 2.97754 6.48669 2.02115 6.34669C2.26175 6.09003 2.52641 5.85086 2.8031 5.62919C3.26024 5.65836 3.95799 5.61753 4.57754 5.57669L4.67504 5.57015L4.67507 5.57014C4.98638 5.54919 5.27098 5.53003 5.46175 5.53003C5.74166 5.53003 6.07888 5.48455 6.43948 5.43592L6.5204 5.42503L6.53288 5.42333L6.53288 5.42333C7.13129 5.34208 7.80447 5.25067 8.21664 5.34336C9.20912 5.57086 10.0993 6.44003 10.5384 6.93586C10.7309 7.15169 10.9414 7.35586 11.146 7.54836L11.1969 7.59775C11.4678 7.86011 11.7305 8.11457 11.9399 8.40003C11.9941 8.48169 12.0663 8.59836 12.0663 8.68586C12.0486 8.98924 11.6138 9.27577 11.3134 9.47379L11.2963 9.48503L11.2061 9.54336C11.049 9.64813 10.8878 9.74124 10.7194 9.83855L10.7194 9.83857L10.6046 9.90503L10.5412 9.94189C10.1703 10.1574 9.79211 10.377 9.46776 10.675C9.17904 10.9434 9.03468 11.2409 8.89634 11.5267C8.83619 11.655 8.77002 11.7775 8.69182 11.9117C8.14564 12.8372 7.04847 13.2399 5.98596 13.63L5.97904 13.6325C5.91759 13.6554 5.85532 13.6784 5.79276 13.7014ZM130.833 23.8409V24.0217H130.304V25.3692H130.087V24.0217H129.558V23.8409H130.833ZM131.026 23.8409H131.332L131.784 25.1301L132.235 23.8409H132.535V25.3692H132.331V24.4651V24.3134V24.0801L131.88 25.3692H131.669L131.218 24.0801V24.1267V24.2959V24.4651V25.3692H131.014V23.8409H131.026Z" fill="#19355B"/>
</svg>
